<svg width="23" height="18" viewBox="0 0 23 18" fill="none" xmlns="http://www.w3.org/2000/svg">
<path d="M0 5.25H22.5V12.75H0V5.25Z" fill="#282646"/>
<path d="M3 0H19.5C21.156 0 22.5 1.344 22.5 3V6H0V3C0 1.344 1.344 0 3 0Z" fill="#992532"/>
<path d="M19.5 18L3 18C1.344 18 0 16.656 0 15V12L22.5 12V15C22.5 16.656 21.156 18 19.5 18Z" fill="#992532"/>
<path d="M0 3.75H22.5V6H0V3.75Z" fill="white"/>
<path d="M0 12H22.5V14.25H0V12Z" fill="white"/>
<path opacity="0.15" d="M19.5 0H3C1.34325 0 0 1.34325 0 3V15C0 16.6567 1.34325 18 3 18H19.5C21.1567 18 22.5 16.6567 22.5 15V3C22.5 1.34325 21.1567 0 19.5 0ZM21.75 15C21.75 16.2405 20.7405 17.25 19.5 17.25H3C1.7595 17.25 0.75 16.2405 0.75 15V3C0.75 1.7595 1.7595 0.75 3 0.75H19.5C20.7405 0.75 21.75 1.7595 21.75 3V15Z" fill="black"/>
<path opacity="0.2" d="M19.5 0.75H3C1.75725 0.75 0.75 1.75725 0.75 3V3.75C0.75 2.50725 1.75725 1.5 3 1.5H19.5C20.7428 1.5 21.75 2.50725 21.75 3.75V3C21.75 1.75725 20.7428 0.75 19.5 0.75Z" fill="white"/>
</svg>
